<svg xmlns="http://www.w3.org/2000/svg" version="1.1" xmlns:xlink="http://www.w3.org/1999/xlink" xmlns:svgjs="http://svgjs.dev/svgjs" width="300" height="300"><svg id="SvgjsSvg1003" data-name="Layer 2" xmlns="http://www.w3.org/2000/svg" viewBox="0 0 300 300">
  <defs>
    <style>
      .cls-1 {
        fill: #fff;
      }

      .cls-2 {
        fill: none;
      }

      .cls-3 {
        fill: #de3245;
      }

      .cls-3, .cls-4, .cls-5, .cls-6 {
        fill-rule: evenodd;
      }

      .cls-4 {
        fill: #a91f26;
        opacity: .6;
      }

      .cls-5 {
        fill: #ee3245;
      }

      .cls-6 {
        fill: #ed1c24;
      }
    </style>
  </defs>
  <g id="SvgjsG1002">
    <g>
      <rect class="cls-2" width="300" height="300"></rect>
      <g>
        <path class="cls-6" d="M233.41,174.48l-138.57,80.06c-18.83,10.88-42.37-2.72-42.37-24.48,0-45.87,0-91.75,0-137.62,0-7.5,0-15,0-22.5,0-10.09,5.39-19.44,14.12-24.48,8.24-4.76,18.83-5.44,28.25,0l138.57,80.06c18.83,10.88,18.83,38.08,0,48.96Z"></path>
        <path class="cls-4" d="M233.13,124.65c9.44,5.4,14.19,14.89,14.23,24.41.05,10.09-5.31,19.46-14.01,24.54-6.47,3.78-12.95,7.56-19.42,11.34-39.59,23.12-79.19,46.24-118.78,69.35-18.78,10.97-42.38-2.53-42.48-24.28l-.04-9.23c14.61-29.56,28.86-33.81,67.59-35.02,45.28-1.42,90.94-41.4,110.49-62.49l2.41,1.38Z"></path>
        <path class="cls-5" d="M233.41,125.52L94.84,45.46c-9.42-5.44-20.01-4.76-28.25,0-8.73,5.04-14.12,14.39-14.12,24.48,0,7.5,0,15,0,22.5v28.08c17.61,10.33,49.23,22.4,97.53,18.37,53.2-4.44,50.25,33.29,42.09,59.46l41.32-23.87c18.83-10.88,18.83-38.08,0-48.96Z"></path>
        <path class="cls-3" d="M247.37,149.07c0-1.68-.17-3.36-.47-5.02-1.56-7.38-6.05-14.23-13.49-18.53l-3.11-1.8c-8.34,8.94-21.22,21.12-36.71,32.32,5.42,12.03,2.81,28.18-1.26,41.51,7.2-4.2,14.4-8.41,21.61-12.61,6.47-3.78,12.95-7.56,19.42-11.34,8.71-5.08,14.06-14.46,14.01-24.54Z"></path>
        <g>
          <g>
            <path class="cls-1" d="M98.92,170.07c1.22-.84,2.17-2,3.13-3.12,1.03-1.2,2.2-2.54,2.57-4.12.36-1.58-1.25-2.85-2.69-2.07-1.26.68-2.18,1.88-3.14,2.92-1,1.09-2.14,2.05-3.02,3.23-1.38,1.85,1.31,4.43,3.15,3.16Z"></path>
            <path class="cls-1" d="M85.13,154.81c1.8-.19,3.59-.39,5.38-.65,1.82-.26,3.76-.38,5.09-1.78.66-.7.46-1.66-.28-2.19-1.35-.97-3.05-.86-4.65-.79-1.85.08-3.69.21-5.53.36-3.24.27-3.21,5.39,0,5.05Z"></path>
            <path class="cls-1" d="M83.79,128.41c2.28,1.79,5.93,3.17,8.86,2.94,1.66-.13,2.32-2.2.85-3.15-1.18-.76-2.48-1.18-3.76-1.73-1.29-.55-2.49-1.29-3.83-1.71-1.98-.61-3.88,2.26-2.12,3.65Z"></path>
            <path class="cls-1" d="M97.54,111.91c.59,1.22,1.7,2.21,2.51,3.29.8,1.07,1.63,2.28,2.7,3.1,1.36,1.05,2.98.08,2.75-1.6-.2-1.49-1.05-2.95-1.86-4.2-.87-1.34-1.75-2.71-3.03-3.66-1.98-1.46-3.95,1.26-3.07,3.07Z"></path>
            <path class="cls-1" d="M120.16,100.91c.49,1.55.78,3.13,1.15,4.7.24,1.02.55,4.63,2.42,4.15,2.1-.53,1.9-3.88,1.92-5.55.04-2.4-.34-6.22-2.29-7.8-1.17-.95-3.11-.74-3.53.93-.33,1.35-.1,2.25.31,3.56Z"></path>
            <path class="cls-1" d="M142.24,111.64c3.1-1.36,4.88-5.27,6.06-8.22,1.27-3.19-4.01-4.7-5.19-1.43-.94,2.63-2.85,4.87-3.65,7.51-.53,1.75,1.37,2.76,2.78,2.14Z"></path>
            <path class="cls-1" d="M158.01,123.39c3.54-1,7.82-2.93,10.58-5.38,1.86-1.65-.09-4.87-2.41-4.14-1.89.59-3.64,1.76-5.3,2.82-1.67,1.07-3.29,2.13-4.74,3.49-1.41,1.33.05,3.72,1.86,3.21Z"></path>
            <path class="cls-1" d="M163.12,142.77c.97,1.69,2.85,1.62,4.61,1.65,2.22.03,4.43-.05,6.65-.13,3.46-.12,3.46-5.55,0-5.38-1.67.08-13.6-.21-11.26,3.86Z"></path>
            <path class="cls-1" d="M153.29,160.77c.98,1.74,2.85,2.88,4.36,4.14,1.46,1.22,3.01,3.3,4.96,3.61,1.77.28,3.22-1,2.84-2.84-.42-2.02-2.51-3.31-4.03-4.53-1.65-1.32-3.6-3.12-5.77-3.44-1.74-.25-3.34,1.33-2.36,3.07Z"></path>
          </g>
          <g>
            <path class="cls-1" d="M125.39,204.14c-.27,0-.54-.09-.78-.25-5.49-3.67-5.52-6.72-4.58-8.64.02-.04.04-.08.06-.12-2.13-1.94-2.36-4.42-.6-6.7.18-.23.38-.47.61-.7-1.7-1.03-2.12-2.26-2.1-3.25.12-5.65,8.79-6.23,14.53-6.61,1.49-.1,2.91-.19,3.56-.35.59-.14.74-.29.74-2.97,0-1.76,0-4.17.77-6.96.96-3.48,3.17-5.66,5.51-7.97,3.04-3,6.17-6.1,7.07-12.71.96-7.05-.54-12.97-4.33-17.13-3.75-4.11-9.66-6.21-16.64-5.91-14.4.63-20.62,9.71-21.58,17.3-1.42,11.35,4.25,16.09,8.39,19.55l.5.42c5.16,4.34,7.43,10.95,7.7,14.34.06.81-.54,1.51-1.34,1.57-.81.06-1.51-.54-1.57-1.34-.22-2.78-2.22-8.59-6.66-12.33l-.49-.41c-4.13-3.45-11.04-9.23-9.42-22.16,1.09-8.72,8.12-19.15,24.35-19.86,7.86-.34,14.58,2.09,18.93,6.86,4.39,4.82,6.14,11.56,5.06,19.5-1.03,7.59-4.69,11.21-7.92,14.39-2.14,2.12-3.99,3.94-4.75,6.67-.67,2.4-.66,4.49-.66,6.17,0,2.5,0,5.08-2.96,5.81-.9.22-2.3.31-4.06.43-4.1.27-11.74.78-11.8,3.76,0,.19.43.67,1.6,1.14.05.02.11.04.16.06,4.64-2.85,11.91-4.55,14.86-2.37,2.09,1.55,1.85,2.99,1.52,3.71-1.49,3.24-10.94,3.01-15.38,1.99-.19-.04-.38-.09-.55-.13-.53.41-.99.84-1.33,1.28-.7.9-.91,1.73.29,2.79,3.55-2.42,10.09-2.97,14.5-1.46.73.25,2.95,1.01,3.1,2.83.06.74-.22,1.81-1.87,2.68-2.86,1.51-10.13,2.24-15.26-.28-.5,1.68,2.37,3.82,3.66,4.69.67.45.85,1.36.4,2.03-.29.43-.77.66-1.25.65ZM125.15,194.7c4.13,1.43,9.33.68,11.15-.14-.17-.08-.38-.16-.64-.25-3.33-1.14-7.74-.73-10.51.39ZM127.31,186.7c3.71.35,7.61-.05,8.84-.7-.08-.08-.19-.17-.34-.28-1.24-.92-5.07-.35-8.5.98Z"></path>
            <path class="cls-1" d="M129.58,178.5c-.69-6.22-2.3-12.5-4.66-18.28-1.92-4.7-4.14-8.1-7.08-12.65-.56-.86-5.42-7.75-.38-10.41,2.24-1.18,5.54.88,6.47,3.03.8,1.85,1.79.84,1.44-.03-1.99-4.87-6.61-4.98-7.91-4.41-7.17,3.15-3.31,9.4-2.23,10.93,1.57,2.23,2.82,4.08,4.35,6.36,1.54,2.28,2.75,4.78,3.82,7.31,1.83,4.34,3.06,8.95,3.97,13.56.26,1.31.65,3.72.74,4.56.1.92,1.57.97,1.46.03h0Z"></path>
            <g>
              <path class="cls-1" d="M125.99,141.81c.66-1.81,1.03-2.74,1.58-3.64l.08.73c-.58.91-.86,1.49-1.51,3.34.49,1.45.99,3.14,1.35,4.59,1.46,5.79.24,8-1.13,8.58-.98.41-1.92-.26-2.33-1.24-.88-2.07,0-6.53,1.24-10.36-.44-1.47-.84-2.58-1.12-3.24-.12-.28-.22-.36-.36-.71-.16-.39-.04-.77.22-.88.42-.18.9.07,1.12.6.15.35.48,1.2.86,2.24ZM125.44,144.32c-1.08,3.56-1.8,7.58-.98,9.51.27.63.81,1.02,1.33.8,1.13-.48,1.76-2.32.34-7.87-.19-.83-.47-1.7-.69-2.44Z"></path>
              <path class="cls-1" d="M137.89,140.28c-.31-.73-.61-1.76-.9-2.44-.14-.34-.3-.51-.45-.44-.33.14-.52,1.03-1.05,3.96-.17.82-.1,1.83-.61,2.04-.29.12-.97-.05-1.2-.58-.17-.39-.14-.75-.18-1.54,0-1.55-.05-3.49-.4-4.32-.08-.2-.26-.29-.44-.22-.66.28-1.59,4.65-1.92,7.44-.17,1.45-.06,2.21-.61,2.45s-1.32-.25-1.63-.98c-.6-1.42.25-5.46-.25-6.63-.08-.2-.28-.34-.46-.27-.11.05-.21.32-.21.32l-.21-.49c.26-.51.52-1.03,1.07-1.26.66-.28,1.26.1,1.61.93.46,1.07-.03,3.52.2,5.5.47-2.68,1.09-7.66,2.56-8.28.48-.2,1.33.07,1.68.9.5,1.17.21,3.88.36,4.23.02.05.06.15.17.1.07-.03.11-.16.15-.35.48-2.45.83-3.87,1.61-4.19.51-.22.96.11,1.39,1.02.88,1.99,1.69,3.78,2.97,3.23.29-.12.41-.46.52-.91.06-.26.1-.39.17-.42s.13,0,.17.1.05.21.03.39c-.14,1.1-.49,2.22-1.44,2.63-1.32.56-2.09-.44-2.71-1.9Z"></path>
            </g>
          </g>
        </g>
      </g>
    </g>
  </g>
</svg><style>@media (prefers-color-scheme: light) { :root { filter: none; } }
@media (prefers-color-scheme: dark) { :root { filter: none; } }
</style></svg>