<?xml version="1.0" encoding="UTF-8"?>
<svg id="Layer_2" data-name="Layer 2" xmlns="http://www.w3.org/2000/svg" viewBox="0 0 1121.55 250">
  <defs>
    <style>
      .cls-1, .cls-2 {
        fill: #fff;
      }

      .cls-2 {
        fill-rule: evenodd;
      }
    </style>
  </defs>
  <g id="horizontal_mono" data-name="horizontal mono">
    <g>
      <g>
        <path class="cls-2" d="M83.04,129.42c.31.73.93,1.18,1.54.92,1.31-.55,2.03-2.67.39-9.08-.22-.95-.54-1.96-.8-2.81-1.24,4.1-2.07,8.74-1.13,10.97Z"/>
        <path class="cls-2" d="M96.53,166.53c-.1-.09-.22-.2-.39-.32-1.44-1.06-5.84-.41-9.81,1.13,4.28.4,8.78-.06,10.2-.81Z"/>
        <path class="cls-2" d="M208.71,96.76L48.87,4.42c-10.86-6.27-23.08-5.49-32.58,0C6.22,10.23,0,21.02,0,32.65c0,8.65,0,17.3,0,25.95,0,52.91,0,105.83,0,158.74,0,25.1,27.15,40.78,48.87,28.24l159.84-92.35c21.72-12.55,21.72-43.92,0-56.47ZM119.58,90.6c1.67-1.57,3.54-2.79,5.46-4.02,1.92-1.22,3.94-2.57,6.11-3.26,2.67-.84,4.93,2.87,2.78,4.77-3.19,2.82-8.12,5.05-12.2,6.2-2.1.59-3.78-2.17-2.15-3.7ZM100.35,78.28c.93-3.05,3.13-5.64,4.21-8.67,1.35-3.78,7.45-2.03,5.98,1.65-1.36,3.4-3.41,7.91-6.99,9.48-1.63.71-3.82-.45-3.2-2.47ZM77.72,64.27c.47-1.93,2.72-2.17,4.07-1.07,2.24,1.83,2.68,6.23,2.64,9-.03,1.93.2,5.78-2.22,6.4-2.16.55-2.52-3.62-2.79-4.79-.43-1.82-.76-3.64-1.33-5.43-.48-1.51-.74-2.55-.36-4.11ZM55.53,77.52c1.49,1.1,2.5,2.68,3.5,4.23.93,1.44,1.91,3.12,2.14,4.84.26,1.94-1.61,3.06-3.17,1.85-1.23-.95-2.18-2.34-3.11-3.58-.94-1.25-2.21-2.39-2.9-3.8-1.02-2.09,1.26-5.23,3.54-3.54ZM38.57,95.89c1.55.48,2.94,1.33,4.42,1.97,1.47.63,2.98,1.13,4.34,2,1.69,1.09.94,3.48-.98,3.63-3.38.27-7.59-1.33-10.22-3.39-2.03-1.6.17-4.91,2.45-4.21ZM43.87,129.8c-2.06.3-4.13.54-6.2.75-3.71.39-3.73-5.51,0-5.82,2.13-.18,4.25-.33,6.38-.42,1.85-.08,3.8-.21,5.37.91.85.61,1.09,1.72.33,2.53-1.52,1.61-3.77,1.75-5.87,2.05ZM60.16,139.8c-.42,1.82-1.77,3.36-2.96,4.75-1.11,1.29-2.21,2.63-3.61,3.6-2.13,1.47-5.23-1.5-3.64-3.64,1.02-1.37,2.33-2.47,3.49-3.73,1.1-1.2,2.17-2.58,3.62-3.37,1.66-.9,3.53.57,3.11,2.39ZM106.92,138.49c-2.47,2.44-4.6,4.55-5.48,7.69-.77,2.77-.77,5.18-.76,7.12,0,2.88,0,5.86-3.41,6.71-1.04.25-2.65.36-4.69.5-4.73.32-13.54.9-13.61,4.33,0,.22.49.77,1.85,1.31.06.02.12.05.18.07,5.35-3.29,13.74-5.25,17.15-2.73,2.42,1.79,2.13,3.45,1.75,4.28-1.72,3.73-12.62,3.47-17.74,2.3-.22-.05-.43-.1-.64-.16-.62.47-1.14.96-1.53,1.47-.8,1.04-1.05,1.99.34,3.22,4.1-2.79,11.63-3.43,16.73-1.69.84.29,3.41,1.17,3.57,3.26.07.86-.25,2.08-2.16,3.09-3.3,1.74-11.68,2.58-17.61-.32-.58,1.94,2.73,4.41,4.23,5.41.77.52.98,1.57.47,2.34-.33.5-.88.76-1.44.75-.31,0-.62-.1-.9-.28-6.34-4.24-6.37-7.76-5.28-9.96.02-.05.05-.09.07-.14-2.46-2.24-2.73-5.1-.69-7.73.21-.27.44-.54.7-.8-1.96-1.19-2.45-2.6-2.42-3.75.1-4.97,5.94-6.54,11.64-7.2-.14-1.13-.55-3.59-.83-4.99-1.05-5.32-2.47-10.64-4.58-15.64-1.23-2.92-2.63-5.8-4.4-8.43-1.77-2.62-3.21-4.76-5.02-7.34-1.24-1.76-5.69-8.97,2.57-12.61,1.4-.62,6.18-.55,8.67,4.1.07.09.14.19.19.31.06.15.16.39.27.66,0,0,0,0,0,0,0,0,0,0,0,0,.19.49.44,1.14.71,1.9.77-2.09,1.19-3.16,1.83-4.19h0c.24-.41.53-.79,1-.99.76-.32,1.45.12,1.85,1.07.53,1.24-.03,4.06.24,6.34.54-3.09,1.26-8.84,2.96-9.56.55-.23,1.53.08,1.94,1.04.57,1.35.25,4.48.41,4.87.02.06.07.17.2.11.08-.04.12-.18.18-.41.55-2.82.96-4.46,1.85-4.84.59-.25,1.1.13,1.6,1.18,1.02,2.29,1.94,4.36,3.43,3.73.34-.14.47-.53.6-1.05.07-.3.11-.45.2-.48.09-.04.15,0,.2.12.05.11.05.24.04.45-.16,1.27-.56,2.56-1.67,3.03-1.53.65-2.41-.5-3.13-2.19-.36-.84-.71-2.02-1.04-2.81-.17-.39-.35-.58-.52-.51-.38.16-.6,1.18-1.22,4.57-.2.95-.11,2.11-.7,2.36-.34.14-1.12-.05-1.39-.67-.19-.45-.16-.86-.2-1.77,0-1.79-.05-4.03-.46-4.99-.1-.23-.3-.34-.51-.25-.76.32-1.83,5.36-2.22,8.58-.19,1.68-.07,2.55-.7,2.82-.64.27-1.52-.28-1.88-1.13-.69-1.63.28-6.3-.29-7.65-.1-.22-.32-.4-.53-.31-.13.05-.24.37-.24.37v-.03c-.61.96-.94,1.68-1.65,3.69.56,1.67,1.14,3.62,1.56,5.29,1.68,6.68.28,9.22-1.3,9.89-1.13.48-2.21-.3-2.69-1.43-1.01-2.38,0-7.53,1.43-11.95-.47-1.58-.9-2.78-1.22-3.56-.11-.17-.22-.37-.33-.62-1.07-2.48-4.89-4.86-7.47-3.49-5.81,3.07-.21,11.01.44,12.01,3.39,5.25,5.95,9.18,8.17,14.6,2.67,6.52,4.49,13.59,5.32,20.61,1.21-.11,2.38-.19,3.46-.26,1.72-.12,3.36-.22,4.11-.41.68-.17.85-.34.85-3.43,0-2.03,0-4.81.89-8.02,1.11-4.01,3.66-6.53,6.35-9.19,3.5-3.46,7.12-7.04,8.16-14.66,1.11-8.13-.62-14.97-4.99-19.76-4.33-4.75-11.14-7.17-19.19-6.81-16.62.73-23.79,11.2-24.89,19.95-1.64,13.09,4.9,18.56,9.68,22.55l.58.48c5.95,5.01,8.57,12.63,8.88,16.54.07.93-.62,1.74-1.55,1.82-.93.07-1.74-.62-1.81-1.55-.26-3.21-2.57-9.91-7.69-14.22l-.57-.48c-4.76-3.98-12.74-10.64-10.87-25.56,1.26-10.05,9.37-22.08,28.09-22.9,9.07-.4,16.82,2.41,21.83,7.91,5.07,5.55,7.08,13.33,5.84,22.49-1.19,8.76-5.41,12.93-9.13,16.6ZM127.04,146.36c-2.25-.35-4.03-2.75-5.72-4.16-1.74-1.45-3.9-2.76-5.03-4.77-1.13-2.01.71-3.83,2.72-3.54,2.5.36,4.75,2.44,6.65,3.97,1.75,1.41,4.16,2.9,4.65,5.23.44,2.13-1.24,3.6-3.28,3.28ZM140.63,118.42c-2.56.09-5.11.18-7.67.15-2.03-.03-4.2.05-5.32-1.9-2.69-4.7,11.06-4.36,12.99-4.46,3.99-.2,4,6.07,0,6.21Z"/>
        <path class="cls-2" d="M96.69,176.4c-.19-.09-.44-.19-.74-.29-3.85-1.31-8.92-.85-12.12.45,4.76,1.64,10.76.79,12.86-.16Z"/>
      </g>
      <g>
        <path class="cls-1" d="M304.29,69.67v136.27c0,22.52-24.98,40.88-56.21,41.73-1.23.03-2.25-.98-2.25-2.22v-1.8c0-1.18.98-2.15,2.17-2.19,23.42-.73,35.31-13.33,35.31-28.8l-.28-136.21c0-1.06.57-2.16,1.61-2.44,5.68-1.17,11.03-3.36,15.98-6.78,1.5-.92,3.68.54,3.68,2.44ZM314.63,22.41c-1.42,16.01-19.62,31.02-41.18,32.89l-.02-.11c-.24-1.23.51-2.4,1.69-2.82,5.13-1.85,10.15-9.25,12.86-16.08,8.26-20.88,24.63-19.71,26.05-18.34,1.01,1.21.67,3.74.6,4.46Z"/>
        <path class="cls-1" d="M492.06,104.4v82.55c0,1.37-1.27,2.48-2.84,2.48h-15.61c-1.57,0-2.84-1.11-2.84-2.48v-91.24c0-12.47-9.89-22.42-21.85-22.42s-21.73,9.89-21.73,22.37h0s.02,91.37.02,91.37c0,1.37-1.27,2.48-2.84,2.48h-15.61c-1.57,0-2.84-1.11-2.84-2.48v-91.37c0-12.47-9.84-22.37-21.8-22.37s-21.73,9.89-21.73,22.37l-.06.02v90.96c0,1.59-1.28,2.87-2.87,2.87h-15.3c-1.58,0-2.86-1.28-2.87-2.87l-.18-82.24c0-20.43,19.16-37.27,43-37.27,12.95,0,24.53,4.98,32.41,12.79,7.87-7.82,19.43-12.79,32.38-12.79,23.84,0,43.13,16.83,43.14,37.27Z"/>
        <path class="cls-1" d="M646.35,156.96h0s0,.02,0,.03h0c0,19.46-21.7,34.79-45.98,34.79-25.47,0-46.12-16.78-46.12-43.1v-39.52c0-26.32,20.65-43.1,46.12-43.1s45.98,14.84,45.98,34.79h0s0,.02,0,.03h0c.05,5.75-4.76,10.41-10.61,10.41s-10.6-4.66-10.61-10.41h0v-.02s0,0,0,0h0c0-.14.09-7.03.03-7.9-.79-11.51-11.57-20.62-24.79-20.62-16.51,0-24.83,10.95-24.83,29.85v53.46c0,18.25,8.91,29.85,24.83,29.85,13.21,0,23.99-9.11,24.79-20.62.06-.86-.03-7.75-.03-7.9h0,0s0-.02,0-.02h0c.02-5.75,4.76-10.41,10.61-10.41s10.66,4.66,10.61,10.41Z"/>
        <path class="cls-1" d="M714.14,114.08c-.87.97-1.67,1.97-2.4,3-.28.4-.82.52-1.24.26-2.83-1.77-6.94-3.45-10.3-3.51-9.11-.16-16.48,6.6-16.48,14.58v59.49c0,.89-.83,1.62-1.85,1.62h-10.15c-1.02,0-1.85-.72-1.85-1.62v-53.8c0-13.39,13.43-24.31,29.99-24.31,5.04,0,9.78,1.09,13.94,2.86.58.25.75.96.33,1.43Z"/>
        <path class="cls-1" d="M755.38,186.9c8.59,0,16.12-6.13,16.12-13.41,0-.56-.02-5.04-.02-5.13h0v-.02c.01-3.74,3.1-6.77,6.9-6.77s6.93,3.03,6.9,6.77h0s0,.01,0,.02h0c0,12.66-14.11,22.63-29.91,22.63-16.56,0-29.99-10.92-29.99-28.03v-25.02c0-19.83,13.43-28.72,29.99-28.72s29.17,7.07,29.17,20.61h0c0,9.84-6.42,14.84-10.68,17.22-4.8,2.68-12.16,4.62-17.53,7.08-11.16,5.1-17.11,10.28-17.11,17.46,0,10.35,7.22,15.32,16.15,15.32ZM755.38,113.3c-9.57,0-16.15,8.13-16.15,19.33v25.03c4.5-2.57,10.66-5.23,15.7-8.22,8.2-4.86,16.6-10.73,16.6-19.61,0-10.37-5.59-16.52-16.15-16.52Z"/>
        <path class="cls-1" d="M820.92,127.58c0,3.78-3.09,6.85-6.9,6.85s-6.9-2.98-6.9-6.77c0-10.56,10.66-18.58,26.62-18.58s28.36,10.97,28.36,24.5v41.17c0,5.55,4.05,10.16,9.29,11.08.47.08.81.5.81.99v1.75c0,.52-.43.96-.95.94-6.03-.24-11.49-2.69-15.58-6.56-5.49,5.39-14,7.9-23.57,7.9-16.56,0-29.99-7.07-29.99-20.61h0c0-9.84,7.19-14.79,11.5-17.09,4.77-2.54,12.1-4.77,17.53-7.08,8.8-3.74,17.11-7.27,17.11-14.45v-4.17c0-7.9-5.4-14.19-14.33-14.19-7.48,0-13,6.86-13,14.31ZM848.25,142.56c-4.5,2.57-9.72,4.92-15.12,7.21-8.84,3.75-17.18,11.61-17.18,20.48,0,10.37,5.59,16.52,16.15,16.52,9.47,0,16.15-6.22,16.15-15.11v-29.1Z"/>
        <path class="cls-1" d="M935,190.36c-2.05.36-4.19.55-6.38.55-16.56,0-29.99-10.85-29.99-24.24l.03-45.05h-11.61c-.45,0-.82-.37-.82-.82v-2.42c0-.45.37-.82.82-.82h11.67l-.1-31.37c0-.69.37-1.4,1.05-1.59,3.7-.76,7.17-2.18,10.39-4.41.97-.6,2.39.35,2.39,1.59l.03,35.78h12.66c.45,0,.82.37.82.82v2.42c0,.45-.37.82-.82.82h-12.65l-.03,50.75c0,7.98,7.36,14.66,16.48,14.5,1.49-.03,3.12-.35,4.72-.86.43-.14.89.09,1.04.52l.92,2.77c.16.47-.14.98-.62,1.07Z"/>
        <path class="cls-1" d="M979.35,80.82c-.93,10.41-12.76,20.17-26.78,21.39v-.07c-.17-.8.32-1.56,1.09-1.84,3.34-1.2,6.6-6.01,8.36-10.46,5.37-13.58,16.01-12.82,16.94-11.93.66.79.43,2.43.39,2.9ZM972.63,111.56v76.09c0,1.03-.83,1.87-1.86,1.87h-9.95c-1.03,0-1.86-.83-1.87-1.87l-.15-71.69c0-.69.37-1.4,1.05-1.59,3.7-.76,7.18-2.18,10.39-4.41.97-.6,2.39.35,2.39,1.59Z"/>
        <path class="cls-1" d="M1048.45,112.5l-22.7,77.27c-.21.72-.87,1.21-1.62,1.21h-3.47c-.74,0-1.39-.43-1.63-1.12l-26.25-76.22c-.34-1.15.55-2.29,1.77-2.29h10.56c.82,0,1.55.53,1.78,1.3l20.03,57.47v-.06s17.1-58.06,17.1-58.06c.11-.39.47-.65.89-.65h2.65c.61,0,1.05.57.88,1.15Z"/>
        <path class="cls-1" d="M1091.64,186.9c8.59,0,16.12-6.13,16.12-13.41,0-.56-.02-5.04-.02-5.13h0v-.02c.01-3.74,3.1-6.77,6.9-6.77s6.93,3.03,6.9,6.77h0s0,.01,0,.02h0c0,12.66-14.11,22.63-29.91,22.63-16.56,0-29.99-10.92-29.99-28.03v-25.02c0-19.83,13.43-28.72,29.99-28.72s29.17,7.07,29.17,20.61h0c0,9.84-6.42,14.84-10.68,17.22-4.8,2.68-12.16,4.62-17.53,7.08-11.16,5.1-17.11,10.28-17.11,17.46,0,10.35,7.22,15.32,16.15,15.32ZM1091.64,113.3c-9.57,0-16.15,8.13-16.15,19.33v25.03c4.5-2.57,10.66-5.23,15.7-8.22,8.2-4.86,16.6-10.73,16.6-19.61,0-10.37-5.59-16.52-16.15-16.52Z"/>
      </g>
    </g>
  </g>
</svg>