<?xml version="1.0" encoding="UTF-8"?>
<svg id="Layer_2" data-name="Layer 2" xmlns="http://www.w3.org/2000/svg" viewBox="0 0 989.53 656.59">
  <defs>
    <style>
      .cls-1, .cls-2 {
        fill: #fff;
      }

      .cls-2 {
        fill-rule: evenodd;
      }
    </style>
  </defs>
  <g id="mono">
    <g>
      <g>
        <path class="cls-1" d="M66.06,455.47v153.98c0,25.44-28.22,46.19-63.52,47.15-1.39.04-2.54-1.11-2.54-2.51v-2.04c0-1.34,1.11-2.43,2.45-2.47,26.46-.82,39.9-15.06,39.9-32.54l-.32-153.91c0-1.2.64-2.44,1.82-2.76,6.42-1.32,12.47-3.79,18.05-7.66,1.69-1.04,4.16.61,4.16,2.76ZM77.74,402.06c-1.61,18.09-22.17,35.05-46.53,37.16l-.02-.12c-.26-1.39.58-2.71,1.91-3.19,5.8-2.09,11.47-10.45,14.53-18.17,9.33-23.59,27.82-22.27,29.43-20.72,1.15,1.37.76,4.22.68,5.04Z"/>
        <path class="cls-1" d="M278.22,494.71v93.27c0,1.55-1.44,2.81-3.21,2.81h-17.64c-1.77,0-3.21-1.26-3.21-2.81v-103.1c0-14.1-11.17-25.33-24.69-25.33s-24.56,11.18-24.56,25.28h0s.03,103.25.03,103.25c0,1.55-1.44,2.81-3.21,2.81h-17.64c-1.77,0-3.21-1.25-3.21-2.81v-103.25c0-14.1-11.11-25.28-24.63-25.28s-24.56,11.18-24.56,25.28l-.07.03v102.79c0,1.79-1.45,3.24-3.24,3.24h-17.28c-1.79,0-3.24-1.45-3.24-3.24l-.21-92.93c0-23.09,21.65-42.12,48.59-42.12,14.64,0,27.72,5.62,36.62,14.46,8.89-8.83,21.96-14.46,36.59-14.46,26.94,0,48.74,19.02,48.75,42.11Z"/>
        <path class="cls-1" d="M452.57,554.09h0s0,.02,0,.03h0c0,21.99-24.52,39.32-51.96,39.32-28.78,0-52.11-18.97-52.11-48.71v-44.66c0-29.74,23.33-48.71,52.11-48.71s51.96,16.77,51.96,39.31h0s0,.02,0,.04h0c.06,6.5-5.38,11.76-11.99,11.76s-11.97-5.27-11.99-11.77h0v-.02s0,0,0,0h0c0-.16.1-7.95.04-8.92-.9-13.01-13.08-23.3-28-23.3-18.66,0-28.06,12.37-28.06,33.73v60.41c0,20.62,10.07,33.73,28.06,33.73,14.92,0,27.11-10.29,28-23.3.07-.98-.04-8.76-.04-8.92h0,0s0-.03,0-.03h0c.02-6.5,5.38-11.77,11.99-11.77s12.05,5.26,11.99,11.76Z"/>
        <path class="cls-1" d="M529.17,505.64c-.98,1.09-1.88,2.22-2.71,3.39-.32.45-.93.59-1.4.29-3.2-2-7.84-3.9-11.65-3.96-10.3-.18-18.62,7.45-18.62,16.47v67.22c0,1.01-.93,1.83-2.09,1.83h-11.47c-1.15,0-2.09-.82-2.09-1.83v-60.79c0-15.12,15.17-27.47,33.89-27.47,5.69,0,11.05,1.23,15.75,3.23.66.28.84,1.09.37,1.61Z"/>
        <path class="cls-1" d="M575.77,587.93c9.71,0,18.21-6.93,18.21-15.15,0-.64-.02-5.7-.02-5.8h0,0s0-.02,0-.02h0c.01-4.23,3.5-7.65,7.8-7.65s7.84,3.42,7.8,7.65h0s0,.01,0,.02h0c0,14.3-15.95,25.57-33.79,25.57-18.72,0-33.89-12.34-33.89-31.68v-28.27c0-22.41,15.17-32.45,33.89-32.45s32.97,7.99,32.97,23.28h0c0,11.12-7.25,16.77-12.07,19.46-5.43,3.03-13.74,5.22-19.81,8-12.62,5.77-19.34,11.61-19.34,19.73,0,11.7,8.16,17.31,18.25,17.31ZM575.77,504.77c-10.81,0-18.25,9.19-18.25,21.83v28.28c5.08-2.91,12.05-5.91,17.74-9.29,9.26-5.49,18.76-12.12,18.76-22.15,0-11.72-6.32-18.67-18.25-18.67Z"/>
        <path class="cls-1" d="M649.82,520.9c0,4.27-3.49,7.74-7.8,7.74s-7.8-3.37-7.8-7.65c0-11.93,12.05-20.99,30.08-20.99s32.04,12.4,32.05,27.69v46.52c-.01,6.27,4.58,11.49,10.5,12.52.53.09.92.57.92,1.11v1.98c0,.59-.49,1.08-1.08,1.06-6.81-.27-12.98-3.04-17.6-7.41-6.21,6.09-15.82,8.92-26.63,8.92-18.72,0-33.89-7.99-33.89-23.28h0c0-11.12,8.12-16.71,13-19.31,5.39-2.87,13.67-5.39,19.81-8,9.94-4.22,19.34-8.21,19.34-16.33v-4.71c0-8.93-6.1-16.04-16.19-16.04-8.45,0-14.69,7.75-14.69,16.17ZM680.7,537.83c-5.09,2.91-10.99,5.55-17.08,8.14-9.99,4.24-19.42,13.12-19.42,23.15,0,11.72,6.32,18.67,18.25,18.67,10.7,0,18.25-7.03,18.25-17.08v-32.88Z"/>
        <path class="cls-1" d="M778.74,591.84c-2.32.41-4.73.63-7.21.63-18.72,0-33.89-12.26-33.89-27.38l.04-50.91h-13.11c-.51,0-.92-.41-.92-.93v-2.74c0-.51.41-.93.92-.93h13.19l-.11-35.45c0-.78.42-1.58,1.18-1.79,4.18-.86,8.11-2.47,11.74-4.98,1.1-.67,2.71.4,2.71,1.79l.04,40.43h14.31c.51,0,.92.41.92.93v2.74c0,.51-.41.93-.92.93h-14.29l-.04,57.34c0,9.01,8.32,16.57,18.62,16.39,1.68-.03,3.53-.4,5.34-.98.49-.16,1.01.1,1.17.58l1.03,3.13c.18.53-.16,1.11-.71,1.2Z"/>
        <path class="cls-1" d="M828.85,468.06c-1.05,11.77-14.42,22.8-30.26,24.17v-.08c-.19-.91.36-1.76,1.23-2.07,3.77-1.36,7.46-6.79,9.45-11.82,6.07-15.34,18.1-14.48,19.14-13.48.75.89.49,2.74.44,3.28ZM821.25,502.79v85.98c0,1.16-.94,2.11-2.11,2.11h-11.24c-1.16,0-2.11-.94-2.11-2.11l-.17-81c0-.78.42-1.58,1.18-1.79,4.18-.86,8.11-2.47,11.74-4.98,1.1-.67,2.7.4,2.7,1.79Z"/>
        <path class="cls-1" d="M906.92,503.86l-25.65,87.31c-.24.81-.98,1.37-1.83,1.37h-3.92c-.83,0-1.57-.48-1.84-1.27l-29.67-86.12c-.38-1.3.62-2.59,2-2.59h11.93c.93,0,1.75.6,2.01,1.47l22.64,64.94v-.07s19.33-65.6,19.33-65.6c.13-.44.54-.74,1-.74h3c.69,0,1.19.65,1,1.29Z"/>
        <path class="cls-1" d="M955.73,587.93c9.71,0,18.21-6.93,18.21-15.15,0-.64-.02-5.7-.02-5.8h0,0s0-.02,0-.02h0c.01-4.23,3.5-7.65,7.8-7.65s7.84,3.42,7.8,7.65h0s0,.01,0,.02h0c0,14.3-15.95,25.57-33.79,25.57-18.72,0-33.89-12.34-33.89-31.68v-28.27c0-22.41,15.17-32.45,33.89-32.45s32.97,7.99,32.97,23.28h0c0,11.12-7.25,16.77-12.07,19.46-5.43,3.03-13.74,5.22-19.81,8-12.62,5.77-19.34,11.61-19.34,19.73,0,11.7,8.16,17.31,18.25,17.31ZM955.73,504.77c-10.81,0-18.25,9.19-18.25,21.83v28.28c5.08-2.91,12.05-5.91,17.74-9.29,9.26-5.49,18.76-12.12,18.76-22.15,0-11.72-6.32-18.67-18.25-18.67Z"/>
      </g>
      <g>
        <path class="cls-2" d="M452.74,207.61c.49,1.17,1.49,1.89,2.47,1.48,2.1-.89,3.25-4.29.63-14.56-.36-1.53-.87-3.15-1.28-4.51-1.99,6.58-3.33,14.03-1.82,17.59Z"/>
        <path class="cls-2" d="M474.39,267.14c-.15-.14-.36-.32-.63-.52-2.3-1.7-9.38-.66-15.73,1.81,6.87.65,14.08-.1,16.37-1.29Z"/>
        <path class="cls-2" d="M654.34,155.23L397.93,7.09c-17.42-10.07-37.02-8.81-52.27,0-16.15,9.33-26.13,26.63-26.13,45.29,0,13.88,0,27.75,0,41.63,0,84.88,0,169.77,0,254.65,0,40.26,43.55,65.43,78.4,45.29l256.41-148.14c34.84-20.13,34.84-70.46,0-90.59ZM511.37,145.34c2.68-2.52,5.68-4.48,8.77-6.45,3.07-1.96,6.31-4.13,9.81-5.22,4.29-1.34,7.9,4.61,4.46,7.66-5.11,4.53-13.03,8.11-19.58,9.95-3.36.95-6.07-3.47-3.45-5.93ZM480.51,125.58c1.49-4.9,5.02-9.04,6.76-13.9,2.17-6.06,11.95-3.26,9.6,2.65-2.17,5.46-5.48,12.69-11.21,15.21-2.61,1.15-6.12-.72-5.14-3.95ZM444.21,103.11c.76-3.09,4.36-3.48,6.52-1.72,3.6,2.93,4.31,10,4.24,14.44-.05,3.09.32,9.28-3.56,10.27-3.47.88-4.04-5.81-4.48-7.69-.69-2.92-1.23-5.84-2.14-8.71-.77-2.43-1.19-4.09-.58-6.59ZM408.62,124.36c2.38,1.76,4.01,4.3,5.61,6.78,1.5,2.31,3.06,5.01,3.43,7.77.42,3.12-2.58,4.91-5.09,2.96-1.97-1.53-3.5-3.76-4.99-5.74-1.5-2.01-3.55-3.84-4.65-6.09-1.64-3.35,2.02-8.39,5.68-5.68ZM381.41,153.82c2.48.76,4.71,2.13,7.09,3.16,2.36,1.02,4.78,1.81,6.96,3.21,2.71,1.75,1.5,5.58-1.58,5.83-5.42.43-12.18-2.13-16.4-5.44-3.26-2.56.27-7.88,3.93-6.75ZM389.91,208.22c-3.31.48-6.62.86-9.95,1.21-5.95.62-5.99-8.84,0-9.34,3.41-.29,6.81-.52,10.23-.67,2.97-.13,6.1-.34,8.61,1.45,1.36.98,1.74,2.77.52,4.06-2.45,2.59-6.05,2.8-9.41,3.29ZM416.04,224.26c-.67,2.93-2.84,5.39-4.75,7.62-1.78,2.07-3.54,4.22-5.8,5.78-3.41,2.36-8.4-2.41-5.84-5.84,1.64-2.2,3.74-3.97,5.59-5.98,1.77-1.92,3.48-4.14,5.81-5.41,2.67-1.45,5.66.91,4.98,3.83ZM491.05,222.17c-3.96,3.91-7.38,7.29-8.78,12.34-1.23,4.44-1.23,8.31-1.22,11.42,0,4.62,0,9.41-5.48,10.76-1.66.41-4.25.58-7.52.8-7.59.51-21.72,1.45-21.83,6.95,0,.36.79,1.24,2.96,2.1.1.04.2.08.29.11,8.59-5.28,22.05-8.42,27.5-4.38,3.88,2.86,3.42,5.54,2.81,6.87-2.76,5.99-20.25,5.57-28.46,3.68-.35-.08-.69-.16-1.02-.25-.99.75-1.83,1.55-2.46,2.37-1.29,1.67-1.68,3.2.54,5.16,6.57-4.48,18.66-5.5,26.83-2.71,1.35.46,5.47,1.87,5.73,5.23.11,1.37-.41,3.34-3.46,4.95-5.29,2.79-18.74,4.14-28.24-.51-.93,3.11,4.38,7.07,6.78,8.68,1.24.83,1.58,2.51.75,3.75-.53.8-1.42,1.22-2.31,1.2-.5-.01-1-.16-1.44-.46-10.16-6.79-10.21-12.44-8.47-15.98.04-.07.08-.15.12-.23-3.94-3.59-4.37-8.18-1.11-12.41.33-.43.71-.86,1.13-1.29-3.15-1.91-3.93-4.18-3.89-6.02.17-7.97,9.52-10.49,18.67-11.55-.23-1.81-.88-5.76-1.32-8.01-1.69-8.53-3.96-17.06-7.35-25.09-1.98-4.68-4.22-9.3-7.07-13.52-2.84-4.21-5.15-7.64-8.05-11.77-1.99-2.83-9.13-14.39,4.13-20.23,2.25-.99,9.92-.88,13.9,6.58.11.15.22.3.3.49.1.23.25.62.43,1.06,0,0,0,0,0,.01,0,0,0,.01,0,.02.31.79.7,1.84,1.15,3.05,1.23-3.35,1.9-5.07,2.93-6.73v.02c.39-.68.84-1.28,1.6-1.61,1.22-.52,2.32.19,2.97,1.72.84,1.99-.05,6.52.38,10.18.87-4.95,2.02-14.17,4.74-15.33.88-.38,2.46.13,3.11,1.66.92,2.17.39,7.19.66,7.82.04.09.11.27.32.18.13-.06.2-.29.28-.65.89-4.53,1.54-7.15,2.97-7.76.95-.4,1.77.21,2.57,1.89,1.63,3.68,3.12,6.99,5.5,5.98.54-.23.76-.86.97-1.69.12-.48.18-.72.31-.77.14-.06.24,0,.32.19.08.18.09.39.06.72-.26,2.03-.9,4.11-2.67,4.86-2.45,1.04-3.87-.81-5.02-3.52-.57-1.36-1.13-3.25-1.67-4.51-.27-.63-.56-.94-.83-.82-.61.26-.96,1.9-1.95,7.33-.32,1.52-.18,3.38-1.13,3.78-.54.23-1.8-.09-2.22-1.08-.31-.72-.26-1.38-.32-2.85-.01-2.87-.09-6.46-.74-8-.15-.36-.47-.54-.81-.4-1.22.52-2.93,8.6-3.56,13.76-.31,2.69-.11,4.09-1.13,4.53-1.02.43-2.44-.45-3.01-1.81-1.11-2.62.45-10.1-.46-12.27-.15-.36-.51-.64-.85-.49-.2.09-.39.59-.39.59l-.02-.05c-.97,1.54-1.49,2.69-2.63,5.93.9,2.67,1.82,5.8,2.51,8.49,2.69,10.71.45,14.8-2.09,15.87-1.81.77-3.55-.49-4.31-2.3-1.62-3.82,0-12.08,2.3-19.17-.75-2.53-1.45-4.46-1.96-5.71-.18-.27-.36-.59-.53-.99-1.72-3.97-7.84-7.79-11.98-5.61-9.32,4.93-.33,17.66.7,19.26,5.44,8.42,9.54,14.72,13.1,23.42,4.28,10.46,7.21,21.81,8.53,33.06,1.94-.18,3.82-.3,5.56-.42,2.77-.19,5.38-.36,6.59-.66,1.08-.27,1.37-.54,1.36-5.5,0-3.26,0-7.72,1.42-12.87,1.78-6.43,5.87-10.47,10.19-14.74,5.62-5.55,11.42-11.29,13.09-23.51,1.77-13.05-1-24.01-8-31.7-6.94-7.61-17.87-11.5-30.79-10.93-26.65,1.17-38.16,17.97-39.92,32.01-2.63,21,7.86,29.77,15.53,36.18l.93.78c9.54,8.03,13.75,20.27,14.24,26.53.12,1.49-.99,2.79-2.48,2.91-1.5.11-2.79-.99-2.91-2.48-.41-5.15-4.12-15.9-12.33-22.82l-.91-.77c-7.64-6.38-20.43-17.07-17.43-41.01,2.02-16.13,15.03-35.43,45.06-36.74,14.55-.63,26.98,3.87,35.02,12.69,8.13,8.91,11.37,21.38,9.37,36.08-1.91,14.05-8.68,20.74-14.65,26.64ZM523.33,234.78c-3.6-.57-6.46-4.42-9.17-6.67-2.79-2.32-6.26-4.43-8.07-7.65-1.81-3.23,1.14-6.15,4.36-5.68,4.01.58,7.61,3.91,10.68,6.36,2.81,2.25,6.68,4.66,7.46,8.39.71,3.41-1.98,5.77-5.25,5.26ZM545.13,189.96c-4.11.14-8.2.29-12.31.24-3.26-.04-6.74.08-8.53-3.05-4.32-7.54,17.75-7,20.84-7.15,6.41-.31,6.41,9.74,0,9.96Z"/>
        <path class="cls-2" d="M474.64,282.97c-.31-.14-.7-.3-1.18-.46-6.17-2.11-14.32-1.36-19.45.72,7.64,2.64,17.27,1.26,20.63-.26Z"/>
      </g>
    </g>
  </g>
</svg>