<?xml version="1.0" encoding="UTF-8"?>
<svg id="Layer_2" data-name="Layer 2" xmlns="http://www.w3.org/2000/svg" viewBox="0 0 989.53 656.07">
  <defs>
    <style>
      .cls-1 {
        fill: #fff;
      }

      .cls-2 {
        fill: #de3245;
      }

      .cls-2, .cls-3, .cls-4, .cls-5 {
        fill-rule: evenodd;
      }

      .cls-3 {
        fill: #a91f26;
        opacity: .6;
      }

      .cls-4 {
        fill: #ee3245;
      }

      .cls-5 {
        fill: #ed1c24;
      }
    </style>
  </defs>
  <g id="white">
    <g>
      <g>
        <path class="cls-5" d="M653.94,245.18l-255.74,147.76c-34.75,20.08-78.19-5.02-78.19-45.18,0-84.66,0-169.33,0-253.99,0-13.84,0-27.68,0-41.52,0-18.61,9.96-35.87,26.06-45.18,15.2-8.78,34.75-10.04,52.13,0l255.74,147.76c34.75,20.08,34.75,70.28,0,90.35Z"/>
        <path class="cls-3" d="M653.43,153.22c17.42,9.96,26.19,27.49,26.27,45.06.09,18.61-9.79,35.92-25.86,45.3-11.95,6.97-23.89,13.95-35.84,20.92-73.08,42.67-146.15,85.33-219.22,128-34.66,20.24-78.22-4.66-78.4-44.82l-.08-17.04c26.96-54.56,53.27-62.4,124.75-64.64,83.57-2.62,167.84-76.42,203.92-115.33l4.46,2.55Z"/>
        <path class="cls-4" d="M653.94,154.82L398.2,7.07c-17.38-10.04-36.92-8.78-52.13,0-16.11,9.31-26.06,26.56-26.06,45.18,0,13.84,0,27.68,0,41.52v51.83c32.5,19.06,90.87,41.33,180,33.9,98.19-8.19,92.74,61.44,77.68,109.74l76.25-44.06c34.75-20.08,34.75-70.28,0-90.35Z"/>
        <path class="cls-2" d="M679.7,198.28c-.01-3.1-.31-6.2-.87-9.26-2.88-13.62-11.16-26.26-24.89-34.19l-5.74-3.32c-15.39,16.5-39.16,38.97-67.74,59.65,10,22.21,5.19,52.01-2.32,76.62,13.29-7.76,26.58-15.52,39.87-23.28,11.95-6.98,23.89-13.95,35.84-20.92,16.07-9.38,25.94-26.68,25.86-45.3Z"/>
        <g>
          <g>
            <path class="cls-1" d="M405.74,237.04c2.25-1.56,4.01-3.7,5.78-5.76,1.91-2.22,4.07-4.68,4.74-7.6.67-2.92-2.31-5.27-4.97-3.82-2.32,1.26-4.03,3.48-5.79,5.39-1.85,2.01-3.95,3.78-5.58,5.97-2.55,3.42,2.42,8.18,5.82,5.83Z"/>
            <path class="cls-1" d="M380.27,208.88c3.32-.35,6.62-.72,9.92-1.21,3.35-.49,6.95-.7,9.39-3.28,1.22-1.29.84-3.07-.52-4.05-2.5-1.79-5.63-1.58-8.59-1.45-3.41.15-6.8.38-10.2.67-5.97.5-5.93,9.94,0,9.32Z"/>
            <path class="cls-1" d="M377.8,160.16c4.21,3.3,10.95,5.86,16.36,5.43,3.07-.24,4.28-4.07,1.57-5.81-2.17-1.4-4.59-2.18-6.94-3.2-2.37-1.02-4.6-2.39-7.07-3.15-3.65-1.12-7.17,4.18-3.92,6.73Z"/>
            <path class="cls-1" d="M403.19,129.71c1.1,2.24,3.14,4.07,4.64,6.07,1.48,1.98,3.01,4.21,4.98,5.73,2.5,1.94,5.49.15,5.07-2.96-.37-2.75-1.93-5.45-3.43-7.75-1.6-2.47-3.22-5.01-5.6-6.76-3.65-2.7-7.3,2.32-5.66,5.67Z"/>
            <path class="cls-1" d="M444.94,109.41c.91,2.86,1.45,5.77,2.13,8.68.44,1.88,1.01,8.55,4.47,7.67,3.87-.99,3.5-7.16,3.55-10.24.07-4.43-.63-11.48-4.22-14.4-2.15-1.75-5.75-1.37-6.51,1.72-.61,2.49-.19,4.15.58,6.57Z"/>
            <path class="cls-1" d="M485.68,129.19c5.72-2.51,9.02-9.72,11.18-15.17,2.35-5.9-7.41-8.68-9.57-2.64-1.74,4.85-5.25,8.98-6.74,13.87-.98,3.22,2.52,5.09,5.13,3.94Z"/>
            <path class="cls-1" d="M514.78,150.88c6.53-1.84,14.43-5.41,19.53-9.93,3.44-3.04-.17-8.98-4.44-7.64-3.48,1.09-6.71,3.25-9.78,5.21-3.08,1.97-6.07,3.93-8.74,6.44-2.61,2.45.09,6.86,3.44,5.92Z"/>
            <path class="cls-1" d="M524.22,186.66c1.79,3.12,5.26,3,8.51,3.04,4.1.06,8.18-.09,12.28-.24,6.39-.22,6.39-10.25,0-9.93-3.09.15-25.09-.39-20.79,7.13Z"/>
            <path class="cls-1" d="M506.08,219.89c1.8,3.22,5.27,5.32,8.05,7.63,2.7,2.25,5.55,6.09,9.15,6.65,3.26.51,5.95-1.84,5.24-5.24-.78-3.72-4.63-6.12-7.44-8.37-3.05-2.45-6.65-5.76-10.65-6.34-3.22-.47-6.16,2.45-4.35,5.67Z"/>
          </g>
          <g>
            <path class="cls-1" d="M454.57,299.92c-.5-.01-.99-.16-1.44-.45-10.14-6.78-10.19-12.41-8.44-15.94.04-.07.08-.15.12-.23-3.93-3.59-4.36-8.16-1.11-12.37.33-.43.71-.86,1.13-1.29-3.14-1.9-3.92-4.17-3.88-6.01.22-10.43,16.22-11.5,26.81-12.21,2.76-.19,5.37-.36,6.57-.65,1.08-.27,1.36-.54,1.36-5.48,0-3.25,0-7.7,1.42-12.84,1.78-6.42,5.86-10.44,10.17-14.7,5.61-5.53,11.4-11.26,13.05-23.45,1.77-13.01-.99-23.95-7.98-31.61-6.92-7.59-17.83-11.47-30.71-10.9-26.58,1.16-38.07,17.92-39.82,31.92-2.63,20.95,7.84,29.7,15.49,36.08l.92.78c9.52,8.01,13.71,20.22,14.2,26.46.12,1.49-.99,2.79-2.48,2.9-1.49.11-2.78-.99-2.9-2.48-.41-5.14-4.11-15.86-12.3-22.76l-.91-.76c-7.62-6.37-20.38-17.03-17.39-40.9,2.01-16.09,14.99-35.34,44.94-36.65,14.51-.63,26.91,3.86,34.93,12.65,8.1,8.89,11.34,21.33,9.35,35.98-1.91,14.02-8.65,20.68-14.61,26.57-3.95,3.9-7.36,7.28-8.76,12.31-1.23,4.43-1.23,8.29-1.22,11.39,0,4.61.01,9.38-5.46,10.73-1.66.41-4.24.58-7.5.8-7.57.5-21.66,1.44-21.78,6.93,0,.36.79,1.24,2.96,2.1.1.04.2.08.29.11,8.57-5.26,21.99-8.39,27.43-4.37,3.87,2.86,3.41,5.52,2.8,6.85-2.75,5.97-20.19,5.56-28.38,3.67-.35-.08-.69-.16-1.02-.25-.99.75-1.82,1.54-2.45,2.36-1.29,1.66-1.68,3.19.54,5.15,6.56-4.47,18.61-5.49,26.76-2.7,1.35.46,5.45,1.87,5.71,5.22.11,1.37-.41,3.34-3.45,4.94-5.28,2.78-18.69,4.13-28.17-.51-.92,3.1,4.37,7.05,6.76,8.66,1.24.83,1.57,2.5.75,3.74-.53.8-1.41,1.22-2.3,1.2ZM454.13,282.5c7.62,2.63,17.22,1.26,20.58-.26-.31-.14-.7-.3-1.18-.46-6.15-2.1-14.28-1.35-19.4.72ZM458.13,267.74c6.85.65,14.04-.09,16.32-1.29-.15-.14-.36-.32-.63-.52-2.3-1.7-9.35-.65-15.69,1.81Z"/>
            <path class="cls-1" d="M462.32,252.6c-1.27-11.47-4.24-23.07-8.61-33.73-3.55-8.67-7.64-14.95-13.07-23.35-1.03-1.59-10-14.3-.7-19.21,4.13-2.18,10.23,1.63,11.95,5.59,1.48,3.42,3.31,1.55,2.66-.06-3.68-9-12.21-9.19-14.6-8.13-13.23,5.82-6.1,17.36-4.12,20.18,2.9,4.12,5.2,7.54,8.03,11.74,2.84,4.21,5.08,8.82,7.05,13.49,3.38,8,5.65,16.51,7.33,25.02.48,2.42,1.2,6.87,1.37,8.41.19,1.7,2.89,1.78,2.7.06h0Z"/>
            <g>
              <path class="cls-1" d="M455.7,184.89c1.23-3.34,1.9-5.06,2.92-6.71l.14,1.34c-1.07,1.68-1.58,2.76-2.78,6.16.9,2.67,1.82,5.79,2.5,8.47,2.69,10.68.45,14.76-2.08,15.83-1.8.76-3.54-.48-4.3-2.29-1.62-3.81,0-12.05,2.29-19.12-.8-2.71-1.55-4.75-2.07-5.98-.22-.52-.4-.67-.67-1.32-.3-.71-.08-1.41.41-1.62.78-.33,1.66.13,2.07,1.1.27.65.88,2.22,1.58,4.13ZM454.67,189.52c-1.99,6.56-3.32,13.99-1.81,17.55.49,1.16,1.49,1.89,2.46,1.47,2.09-.89,3.24-4.27.62-14.53-.36-1.53-.87-3.14-1.27-4.49Z"/>
              <path class="cls-1" d="M477.65,182.06c-.57-1.35-1.13-3.24-1.66-4.5-.27-.63-.56-.93-.83-.82-.61.26-.96,1.89-1.94,7.31-.32,1.52-.18,3.37-1.12,3.77-.54.23-1.8-.09-2.22-1.08-.31-.72-.26-1.38-.32-2.84-.01-2.86-.09-6.44-.74-7.98-.15-.36-.47-.54-.81-.4-1.22.52-2.93,8.57-3.55,13.73-.31,2.68-.11,4.08-1.13,4.52s-2.43-.45-3.01-1.8c-1.11-2.61.45-10.08-.46-12.24-.15-.36-.51-.63-.85-.49-.2.09-.39.59-.39.59l-.38-.9c.48-.95.96-1.89,1.98-2.32,1.22-.52,2.32.18,2.97,1.72.84,1.98-.05,6.5.38,10.15.87-4.94,2.02-14.14,4.73-15.29.88-.37,2.45.13,3.1,1.66.92,2.16.39,7.17.66,7.8.04.09.11.27.32.18.13-.06.2-.29.28-.65.89-4.52,1.54-7.13,2.96-7.74.95-.4,1.77.21,2.56,1.89,1.63,3.67,3.11,6.97,5.49,5.96.54-.23.76-.85.97-1.68.12-.48.18-.71.31-.77s.24,0,.32.19.09.39.06.72c-.26,2.02-.9,4.1-2.67,4.85-2.44,1.04-3.86-.8-5.01-3.51Z"/>
            </g>
          </g>
        </g>
      </g>
      <g>
        <path class="cls-1" d="M66.06,454.94v153.98c0,25.44-28.22,46.19-63.52,47.15-1.39.04-2.54-1.11-2.54-2.51v-2.04c0-1.34,1.11-2.43,2.45-2.47,26.46-.82,39.9-15.06,39.9-32.54l-.32-153.91c0-1.2.64-2.44,1.82-2.76,6.42-1.32,12.47-3.79,18.05-7.66,1.69-1.04,4.16.61,4.16,2.76ZM77.74,401.54c-1.61,18.09-22.17,35.05-46.53,37.16l-.02-.12c-.26-1.39.58-2.71,1.91-3.19,5.8-2.09,11.47-10.45,14.53-18.17,9.33-23.59,27.82-22.27,29.43-20.72,1.15,1.37.76,4.22.68,5.04Z"/>
        <path class="cls-1" d="M278.22,494.19v93.27c0,1.55-1.44,2.81-3.21,2.81h-17.64c-1.77,0-3.21-1.26-3.21-2.81v-103.1c0-14.1-11.17-25.33-24.69-25.33s-24.56,11.18-24.56,25.28h0s.03,103.25.03,103.25c0,1.55-1.44,2.81-3.21,2.81h-17.64c-1.77,0-3.21-1.25-3.21-2.81v-103.25c0-14.1-11.11-25.28-24.63-25.28s-24.56,11.18-24.56,25.28l-.07.03v102.79c0,1.79-1.45,3.24-3.24,3.24h-17.28c-1.79,0-3.24-1.45-3.24-3.24l-.21-92.93c0-23.09,21.65-42.12,48.59-42.12,14.64,0,27.72,5.62,36.63,14.46,8.89-8.83,21.96-14.46,36.59-14.46,26.94,0,48.74,19.02,48.75,42.11Z"/>
        <path class="cls-1" d="M452.57,553.57h0s0,.02,0,.03h0c0,21.99-24.52,39.32-51.96,39.32-28.78,0-52.11-18.97-52.11-48.71v-44.66c0-29.74,23.33-48.71,52.11-48.71s51.96,16.77,51.96,39.31h0s0,.02,0,.04h0c.06,6.5-5.38,11.76-11.99,11.76s-11.97-5.27-11.99-11.77h0v-.02s0,0,0,0h0c0-.16.1-7.95.04-8.92-.9-13.01-13.08-23.3-28-23.3-18.66,0-28.06,12.37-28.06,33.73v60.41c0,20.62,10.07,33.73,28.06,33.73,14.92,0,27.11-10.29,28-23.3.07-.98-.04-8.76-.04-8.92h0,0s0-.03,0-.03h0c.02-6.5,5.38-11.77,11.99-11.77s12.05,5.26,11.99,11.76Z"/>
        <path class="cls-1" d="M529.17,505.12c-.98,1.09-1.88,2.22-2.71,3.39-.32.45-.93.59-1.4.29-3.2-2-7.84-3.9-11.65-3.96-10.3-.18-18.62,7.45-18.62,16.47v67.22c0,1.01-.93,1.83-2.09,1.83h-11.47c-1.15,0-2.09-.82-2.09-1.83v-60.79c0-15.12,15.17-27.47,33.89-27.47,5.69,0,11.05,1.23,15.75,3.23.66.28.84,1.09.37,1.61Z"/>
        <path class="cls-1" d="M575.77,587.41c9.71,0,18.21-6.93,18.21-15.15,0-.64-.02-5.7-.02-5.8h0,0s0-.02,0-.02h0c.01-4.23,3.5-7.65,7.8-7.65s7.84,3.42,7.8,7.65h0s0,.01,0,.02h0c0,14.3-15.95,25.57-33.79,25.57-18.72,0-33.89-12.34-33.89-31.68v-28.27c0-22.41,15.17-32.45,33.89-32.45s32.97,7.99,32.97,23.28h0c0,11.12-7.25,16.77-12.07,19.46-5.43,3.03-13.74,5.22-19.81,8-12.62,5.77-19.34,11.61-19.34,19.73,0,11.7,8.16,17.31,18.25,17.31ZM575.77,504.24c-10.81,0-18.25,9.19-18.25,21.83v28.28c5.08-2.91,12.05-5.91,17.74-9.29,9.26-5.49,18.76-12.12,18.76-22.15,0-11.72-6.32-18.67-18.25-18.67Z"/>
        <path class="cls-1" d="M649.82,520.38c0,4.27-3.49,7.74-7.8,7.74s-7.8-3.37-7.8-7.65c0-11.93,12.05-20.99,30.08-20.99s32.04,12.4,32.05,27.69v46.52c-.01,6.27,4.58,11.49,10.5,12.52.53.09.92.57.92,1.11v1.98c0,.59-.49,1.08-1.08,1.06-6.81-.27-12.98-3.04-17.6-7.41-6.21,6.09-15.82,8.92-26.63,8.92-18.72,0-33.89-7.99-33.89-23.28h0c0-11.12,8.12-16.71,13-19.31,5.39-2.87,13.67-5.39,19.81-8,9.94-4.22,19.34-8.21,19.34-16.33v-4.71c0-8.93-6.1-16.04-16.19-16.04-8.45,0-14.69,7.75-14.69,16.17ZM680.7,537.31c-5.09,2.91-10.99,5.55-17.08,8.14-9.99,4.24-19.42,13.12-19.42,23.15,0,11.72,6.32,18.67,18.25,18.67,10.7,0,18.25-7.03,18.25-17.08v-32.88Z"/>
        <path class="cls-1" d="M778.74,591.32c-2.32.41-4.73.63-7.21.63-18.72,0-33.89-12.26-33.89-27.38l.04-50.91h-13.11c-.51,0-.92-.41-.92-.93v-2.74c0-.51.41-.93.92-.93h13.19l-.11-35.45c0-.78.42-1.58,1.18-1.79,4.18-.86,8.11-2.47,11.74-4.98,1.1-.67,2.71.4,2.71,1.79l.04,40.43h14.31c.51,0,.92.41.92.93v2.74c0,.51-.41.93-.92.93h-14.29l-.04,57.34c0,9.01,8.32,16.57,18.62,16.39,1.68-.03,3.53-.4,5.34-.98.49-.16,1.01.1,1.17.58l1.03,3.13c.18.53-.16,1.11-.71,1.2Z"/>
        <path class="cls-1" d="M828.85,467.54c-1.05,11.77-14.42,22.8-30.26,24.17v-.08c-.19-.91.36-1.76,1.23-2.07,3.77-1.36,7.46-6.79,9.45-11.82,6.07-15.34,18.1-14.48,19.14-13.48.75.89.49,2.74.44,3.28ZM821.25,502.27v85.98c0,1.16-.94,2.11-2.11,2.11h-11.24c-1.16,0-2.11-.94-2.11-2.11l-.17-81c0-.78.42-1.58,1.18-1.79,4.18-.86,8.11-2.47,11.74-4.98,1.1-.67,2.7.4,2.7,1.79Z"/>
        <path class="cls-1" d="M906.92,503.34l-25.65,87.31c-.24.81-.98,1.37-1.83,1.37h-3.92c-.83,0-1.57-.48-1.84-1.27l-29.67-86.12c-.38-1.3.62-2.59,2-2.59h11.93c.93,0,1.75.6,2.01,1.47l22.64,64.94v-.07s19.33-65.6,19.33-65.6c.13-.44.54-.74,1-.74h3c.69,0,1.19.65,1,1.29Z"/>
        <path class="cls-1" d="M955.73,587.41c9.71,0,18.21-6.93,18.21-15.15,0-.64-.02-5.7-.02-5.8h0,0s0-.02,0-.02h0c.01-4.23,3.5-7.65,7.8-7.65s7.84,3.42,7.8,7.65h0s0,.01,0,.02h0c0,14.3-15.95,25.57-33.79,25.57-18.72,0-33.89-12.34-33.89-31.68v-28.27c0-22.41,15.17-32.45,33.89-32.45s32.97,7.99,32.97,23.28h0c0,11.12-7.25,16.77-12.07,19.46-5.43,3.03-13.74,5.22-19.81,8-12.62,5.77-19.34,11.61-19.34,19.73,0,11.7,8.16,17.31,18.25,17.31ZM955.73,504.24c-10.81,0-18.25,9.19-18.25,21.83v28.28c5.08-2.91,12.05-5.91,17.74-9.29,9.26-5.49,18.76-12.12,18.76-22.15,0-11.72-6.32-18.67-18.25-18.67Z"/>
      </g>
    </g>
  </g>
</svg>