<?xml version="1.0" encoding="UTF-8"?>
<svg id="Layer_2" data-name="Layer 2" xmlns="http://www.w3.org/2000/svg" viewBox="0 0 1123.55 250">
  <defs>
    <style>
      .cls-1 {
        fill: #fff;
      }

      .cls-2 {
        fill: #de3245;
      }

      .cls-2, .cls-3, .cls-4, .cls-5 {
        fill-rule: evenodd;
      }

      .cls-3 {
        fill: #a91f26;
        opacity: .6;
      }

      .cls-4 {
        fill: #ee3245;
      }

      .cls-5 {
        fill: #ed1c24;
      }
    </style>
  </defs>
  <g id="horizontal_black" data-name="horizontal black">
    <g>
      <g>
        <path class="cls-5" d="M208.71,153.24L48.87,245.58c-21.72,12.55-48.87-3.14-48.87-28.24,0-52.91,0-105.83,0-158.74,0-8.65,0-17.3,0-25.95C0,21.02,6.22,10.23,16.29,4.42c9.5-5.49,21.72-6.27,32.58,0l159.84,92.35c21.72,12.55,21.72,43.92,0,56.47Z"/>
        <path class="cls-3" d="M208.39,95.76c10.89,6.22,16.37,17.18,16.42,28.16.05,11.63-6.12,22.45-16.16,28.31-7.47,4.36-14.93,8.72-22.4,13.08-45.67,26.67-91.34,53.33-137.02,80C27.57,257.96.35,242.4.24,217.3l-.05-10.65c16.85-34.1,33.29-39,77.97-40.4,52.23-1.63,104.9-47.76,127.45-72.08l2.79,1.59Z"/>
        <path class="cls-4" d="M208.71,96.76L48.87,4.42c-10.86-6.27-23.08-5.49-32.58,0C6.22,10.23,0,21.02,0,32.65c0,8.65,0,17.3,0,25.95v32.39c20.31,11.91,56.79,25.83,112.5,21.19,61.37-5.12,57.96,38.4,48.55,68.59l47.66-27.53c21.72-12.55,21.72-43.92,0-56.47Z"/>
        <path class="cls-2" d="M224.81,123.92c0-1.94-.2-3.88-.54-5.79-1.8-8.51-6.98-16.41-15.56-21.37l-3.59-2.07c-9.62,10.31-24.48,24.36-42.34,37.28,6.25,13.88,3.24,32.5-1.45,47.89,8.31-4.85,16.61-9.7,24.92-14.55,7.47-4.36,14.93-8.72,22.4-13.08,10.04-5.86,16.21-16.68,16.16-28.31Z"/>
        <g>
          <g>
            <path class="cls-1" d="M53.58,148.15c1.41-.97,2.51-2.31,3.61-3.6,1.19-1.39,2.54-2.92,2.96-4.75.42-1.82-1.44-3.29-3.11-2.39-1.45.79-2.52,2.17-3.62,3.37-1.16,1.26-2.47,2.36-3.49,3.73-1.59,2.14,1.51,5.11,3.64,3.64Z"/>
            <path class="cls-1" d="M37.67,130.55c2.07-.22,4.14-.45,6.2-.75,2.09-.3,4.34-.44,5.87-2.05.76-.8.52-1.92-.33-2.53-1.56-1.12-3.52-.99-5.37-.91-2.13.09-4.25.24-6.38.42-3.73.31-3.71,6.21,0,5.82Z"/>
            <path class="cls-1" d="M36.12,100.1c2.63,2.07,6.84,3.66,10.22,3.39,1.92-.15,2.67-2.54.98-3.63-1.36-.87-2.87-1.37-4.34-2-1.48-.64-2.87-1.49-4.42-1.97-2.28-.7-4.48,2.61-2.45,4.21Z"/>
            <path class="cls-1" d="M51.99,81.07c.69,1.4,1.96,2.55,2.9,3.8.93,1.24,1.88,2.63,3.11,3.58,1.56,1.21,3.43.1,3.17-1.85-.23-1.72-1.21-3.4-2.14-4.84-1-1.55-2.01-3.13-3.5-4.23-2.28-1.68-4.56,1.45-3.54,3.54Z"/>
            <path class="cls-1" d="M78.08,68.38c.57,1.79.9,3.61,1.33,5.43.28,1.17.63,5.34,2.79,4.79,2.42-.62,2.19-4.47,2.22-6.4.04-2.77-.4-7.17-2.64-9-1.35-1.1-3.59-.85-4.07,1.07-.38,1.56-.12,2.59.36,4.11Z"/>
            <path class="cls-1" d="M103.55,80.75c3.58-1.57,5.63-6.08,6.99-9.48,1.47-3.69-4.63-5.43-5.98-1.65-1.09,3.03-3.28,5.61-4.21,8.67-.61,2.01,1.58,3.18,3.2,2.47Z"/>
            <path class="cls-1" d="M121.74,94.3c4.08-1.15,9.02-3.38,12.2-6.2,2.15-1.9-.11-5.61-2.78-4.77-2.18.68-4.2,2.03-6.11,3.26-1.93,1.23-3.79,2.45-5.46,4.02-1.63,1.53.05,4.29,2.15,3.7Z"/>
            <path class="cls-1" d="M127.63,116.66c1.12,1.95,3.29,1.87,5.32,1.9,2.56.03,5.11-.06,7.67-.15,4-.14,3.99-6.41,0-6.21-1.93.09-15.68-.25-12.99,4.46Z"/>
            <path class="cls-1" d="M116.3,137.43c1.13,2.01,3.29,3.32,5.03,4.77,1.69,1.41,3.47,3.81,5.72,4.16,2.04.32,3.72-1.15,3.28-3.28-.49-2.33-2.89-3.82-4.65-5.23-1.91-1.53-4.16-3.6-6.65-3.97-2.01-.29-3.85,1.53-2.72,3.54Z"/>
          </g>
          <g>
            <path class="cls-1" d="M84.11,187.45c-.31,0-.62-.1-.9-.28-6.34-4.24-6.37-7.76-5.28-9.96.02-.05.05-.09.07-.14-2.46-2.24-2.73-5.1-.69-7.73.21-.27.44-.54.7-.8-1.96-1.19-2.45-2.6-2.42-3.75.14-6.52,10.14-7.19,16.76-7.63,1.72-.12,3.36-.22,4.11-.41.68-.17.85-.34.85-3.43,0-2.03,0-4.81.89-8.02,1.11-4.01,3.66-6.53,6.35-9.19,3.5-3.46,7.12-7.04,8.16-14.66,1.11-8.13-.62-14.97-4.99-19.76-4.33-4.75-11.14-7.17-19.19-6.81-16.62.73-23.79,11.2-24.89,19.95-1.64,13.09,4.9,18.56,9.68,22.55l.58.48c5.95,5.01,8.57,12.63,8.88,16.54.07.93-.62,1.74-1.55,1.81-.93.07-1.74-.62-1.81-1.55-.26-3.21-2.57-9.91-7.69-14.22l-.57-.48c-4.76-3.98-12.74-10.64-10.87-25.56,1.26-10.05,9.37-22.08,28.09-22.9,9.07-.4,16.82,2.41,21.83,7.91,5.07,5.55,7.08,13.33,5.84,22.49-1.19,8.76-5.41,12.93-9.13,16.6-2.47,2.44-4.6,4.55-5.48,7.69-.77,2.77-.77,5.18-.76,7.12,0,2.88,0,5.86-3.41,6.71-1.04.25-2.65.36-4.69.5-4.73.32-13.54.9-13.61,4.33,0,.22.49.77,1.85,1.31.06.02.12.05.18.07,5.35-3.29,13.74-5.25,17.15-2.73,2.42,1.79,2.13,3.45,1.75,4.28-1.72,3.73-12.62,3.47-17.74,2.3-.22-.05-.43-.1-.64-.16-.62.47-1.14.97-1.53,1.47-.8,1.04-1.05,1.99.34,3.22,4.1-2.79,11.63-3.43,16.73-1.69.84.29,3.41,1.17,3.57,3.26.07.86-.25,2.08-2.16,3.09-3.3,1.74-11.68,2.58-17.61-.32-.58,1.94,2.73,4.41,4.23,5.41.77.52.98,1.57.47,2.34-.33.5-.88.76-1.44.75ZM83.83,176.56c4.76,1.64,10.76.79,12.86-.16-.19-.09-.44-.19-.74-.29-3.85-1.31-8.92-.85-12.12.45ZM86.33,167.34c4.28.4,8.78-.06,10.2-.81-.1-.09-.22-.2-.39-.32-1.44-1.06-5.84-.41-9.81,1.13Z"/>
            <path class="cls-1" d="M88.95,157.87c-.8-7.17-2.65-14.42-5.38-21.08-2.22-5.42-4.78-9.35-8.17-14.6-.64-1-6.25-8.94-.44-12.01,2.58-1.36,6.39,1.02,7.47,3.49.93,2.14,2.07.97,1.66-.03-2.3-5.62-7.63-5.74-9.13-5.08-8.27,3.64-3.81,10.85-2.57,12.61,1.81,2.57,3.25,4.71,5.02,7.34,1.78,2.63,3.17,5.51,4.4,8.43,2.11,5,3.53,10.32,4.58,15.64.3,1.51.75,4.3.86,5.26.12,1.07,1.81,1.11,1.69.03h0Z"/>
            <g>
              <path class="cls-1" d="M84.81,115.56c.77-2.09,1.19-3.16,1.83-4.19l.09.84c-.67,1.05-.99,1.72-1.74,3.85.56,1.67,1.14,3.62,1.56,5.29,1.68,6.68.28,9.22-1.3,9.89-1.13.48-2.21-.3-2.69-1.43-1.01-2.38,0-7.53,1.43-11.95-.5-1.69-.97-2.97-1.3-3.74-.14-.32-.25-.42-.42-.82-.19-.44-.05-.88.25-1.01.49-.21,1.04.08,1.3.69.17.4.55,1.39.99,2.58ZM84.17,118.45c-1.24,4.1-2.07,8.74-1.13,10.97.31.73.93,1.18,1.54.92,1.31-.55,2.03-2.67.39-9.08-.22-.95-.54-1.96-.8-2.81Z"/>
              <path class="cls-1" d="M98.53,113.79c-.36-.84-.71-2.02-1.04-2.81-.17-.39-.35-.58-.52-.51-.38.16-.6,1.18-1.22,4.57-.2.95-.11,2.11-.7,2.36-.34.14-1.12-.05-1.39-.67-.19-.45-.16-.86-.2-1.77,0-1.79-.05-4.03-.46-4.99-.1-.23-.3-.34-.51-.25-.76.32-1.83,5.36-2.22,8.58-.19,1.68-.07,2.55-.71,2.82s-1.52-.28-1.88-1.13c-.69-1.63.28-6.3-.29-7.65-.1-.23-.32-.4-.53-.31-.13.05-.24.37-.24.37l-.24-.56c.3-.59.6-1.18,1.24-1.45.76-.32,1.45.12,1.85,1.07.53,1.24-.03,4.06.24,6.34.54-3.09,1.26-8.84,2.96-9.56.55-.23,1.53.08,1.94,1.04.57,1.35.25,4.48.41,4.87.02.06.07.17.2.11.08-.04.12-.18.18-.41.55-2.82.96-4.46,1.85-4.84.59-.25,1.1.13,1.6,1.18,1.02,2.29,1.94,4.36,3.43,3.73.34-.14.47-.53.6-1.05.07-.3.11-.45.2-.48s.15,0,.2.12.05.24.04.45c-.16,1.27-.56,2.56-1.67,3.03-1.53.65-2.41-.5-3.13-2.19Z"/>
            </g>
          </g>
        </g>
      </g>
      <g>
        <path d="M306.29,69.67v136.27c0,22.52-24.98,40.88-56.21,41.73-1.23.03-2.25-.98-2.25-2.22v-1.8c0-1.18.98-2.15,2.17-2.19,23.42-.73,35.31-13.33,35.31-28.8l-.28-136.21c0-1.06.57-2.16,1.61-2.44,5.68-1.17,11.03-3.36,15.98-6.78,1.5-.92,3.68.54,3.68,2.44ZM316.63,22.41c-1.42,16.01-19.62,31.02-41.18,32.89l-.02-.11c-.23-1.23.51-2.4,1.69-2.82,5.13-1.85,10.15-9.25,12.86-16.08,8.26-20.88,24.63-19.71,26.05-18.34,1.01,1.21.67,3.74.6,4.46Z"/>
        <path d="M494.06,104.4v82.55c0,1.37-1.27,2.48-2.84,2.48h-15.61c-1.57,0-2.84-1.11-2.84-2.48v-91.24c0-12.47-9.89-22.42-21.85-22.42s-21.73,9.89-21.73,22.37h0s.02,91.37.02,91.37c0,1.37-1.27,2.48-2.84,2.48h-15.61c-1.57,0-2.84-1.11-2.84-2.48v-91.37c0-12.47-9.84-22.37-21.8-22.37s-21.73,9.89-21.73,22.37l-.06.02v90.96c0,1.59-1.28,2.87-2.87,2.87h-15.3c-1.58,0-2.86-1.28-2.87-2.87l-.18-82.24c0-20.43,19.16-37.27,43-37.27,12.95,0,24.53,4.98,32.41,12.79,7.87-7.82,19.43-12.79,32.38-12.79,23.84,0,43.14,16.83,43.14,37.27Z"/>
        <path d="M648.35,156.96h0s0,.02,0,.03h0c0,19.46-21.7,34.79-45.98,34.79-25.47,0-46.12-16.78-46.12-43.1v-39.52c0-26.32,20.65-43.1,46.12-43.1s45.98,14.84,45.98,34.79h0s0,.02,0,.03h0c.05,5.75-4.76,10.41-10.61,10.41s-10.6-4.66-10.61-10.41h0v-.02s0,0,0,0h0c0-.14.09-7.03.03-7.9-.79-11.51-11.58-20.62-24.79-20.62-16.51,0-24.83,10.95-24.83,29.85v53.46c0,18.25,8.91,29.85,24.83,29.85,13.21,0,23.99-9.11,24.79-20.62.06-.86-.03-7.75-.03-7.9h0,0s0-.02,0-.02h0c.02-5.75,4.76-10.41,10.61-10.41s10.66,4.66,10.61,10.41Z"/>
        <path d="M716.14,114.08c-.87.97-1.67,1.97-2.4,3-.28.4-.82.52-1.24.26-2.83-1.77-6.94-3.45-10.31-3.51-9.11-.16-16.48,6.6-16.48,14.58v59.49c0,.89-.83,1.62-1.85,1.62h-10.15c-1.02,0-1.85-.72-1.85-1.62v-53.8c0-13.39,13.43-24.31,29.99-24.31,5.04,0,9.78,1.09,13.94,2.86.58.25.75.96.33,1.43Z"/>
        <path d="M757.38,186.9c8.59,0,16.12-6.13,16.12-13.41,0-.56-.02-5.04-.02-5.13h0,0s0-.02,0-.02h0c0-3.74,3.09-6.77,6.9-6.77s6.93,3.03,6.9,6.77h0s0,.01,0,.02h0c0,12.66-14.11,22.63-29.91,22.63-16.56,0-29.99-10.92-29.99-28.03v-25.02c0-19.83,13.43-28.72,29.99-28.72s29.17,7.07,29.17,20.61h0c0,9.84-6.42,14.84-10.68,17.22-4.8,2.68-12.16,4.62-17.53,7.08-11.16,5.1-17.11,10.28-17.11,17.46,0,10.35,7.22,15.32,16.15,15.32ZM757.38,113.3c-9.57,0-16.15,8.13-16.15,19.33v25.03c4.5-2.57,10.66-5.23,15.7-8.22,8.2-4.86,16.6-10.73,16.6-19.61,0-10.37-5.59-16.52-16.15-16.52Z"/>
        <path d="M822.92,127.58c0,3.78-3.09,6.85-6.9,6.85s-6.9-2.98-6.9-6.77c0-10.56,10.66-18.58,26.62-18.58s28.36,10.97,28.36,24.5v41.17c0,5.55,4.05,10.16,9.29,11.08.47.08.81.5.81.99v1.75c0,.52-.43.96-.95.94-6.03-.24-11.49-2.69-15.58-6.56-5.49,5.39-14,7.9-23.57,7.9-16.56,0-29.99-7.07-29.99-20.61h0c0-9.84,7.19-14.79,11.5-17.09,4.77-2.54,12.1-4.77,17.53-7.08,8.8-3.74,17.11-7.27,17.11-14.45v-4.17c0-7.9-5.4-14.19-14.33-14.19-7.48,0-13,6.86-13,14.31ZM850.25,142.56c-4.5,2.57-9.72,4.92-15.12,7.21-8.84,3.75-17.18,11.61-17.18,20.48,0,10.37,5.59,16.52,16.15,16.52,9.47,0,16.15-6.22,16.15-15.11v-29.1Z"/>
        <path d="M937,190.36c-2.05.36-4.19.55-6.38.55-16.56,0-29.99-10.85-29.99-24.24l.03-45.05h-11.61c-.45,0-.82-.37-.82-.82v-2.42c0-.45.37-.82.82-.82h11.67l-.1-31.37c0-.69.37-1.4,1.05-1.59,3.7-.76,7.17-2.18,10.39-4.41.97-.6,2.39.35,2.39,1.59l.03,35.78h12.66c.45,0,.82.37.82.82v2.42c0,.45-.37.82-.82.82h-12.65l-.03,50.75c0,7.98,7.36,14.66,16.48,14.5,1.49-.03,3.12-.35,4.72-.86.43-.14.89.09,1.04.52l.91,2.77c.16.47-.14.98-.62,1.07Z"/>
        <path d="M981.35,80.82c-.93,10.41-12.76,20.17-26.78,21.39v-.07c-.17-.8.32-1.56,1.09-1.84,3.34-1.2,6.6-6.01,8.36-10.46,5.37-13.58,16.01-12.82,16.94-11.93.66.79.43,2.43.39,2.9ZM974.63,111.56v76.09c0,1.03-.83,1.87-1.86,1.87h-9.95c-1.03,0-1.86-.83-1.86-1.87l-.15-71.69c0-.69.37-1.4,1.05-1.59,3.7-.76,7.17-2.18,10.39-4.41.97-.6,2.39.35,2.39,1.59Z"/>
        <path d="M1050.45,112.5l-22.7,77.27c-.21.72-.87,1.21-1.62,1.21h-3.47c-.74,0-1.39-.43-1.63-1.12l-26.25-76.22c-.34-1.15.55-2.29,1.77-2.29h10.56c.82,0,1.55.53,1.78,1.3l20.03,57.47v-.06s17.1-58.06,17.1-58.06c.11-.39.47-.65.89-.65h2.65c.61,0,1.05.57.89,1.15Z"/>
        <path d="M1093.64,186.9c8.59,0,16.12-6.13,16.12-13.41,0-.56-.02-5.04-.02-5.13h0,0s0-.02,0-.02h0c0-3.74,3.09-6.77,6.9-6.77s6.93,3.03,6.9,6.77h0s0,.01,0,.02h0c0,12.66-14.11,22.63-29.91,22.63-16.56,0-29.99-10.92-29.99-28.03v-25.02c0-19.83,13.43-28.72,29.99-28.72s29.17,7.07,29.17,20.61h0c0,9.84-6.42,14.84-10.68,17.22-4.8,2.68-12.16,4.62-17.53,7.08-11.16,5.1-17.11,10.28-17.11,17.46,0,10.35,7.22,15.32,16.15,15.32ZM1093.64,113.3c-9.57,0-16.15,8.13-16.15,19.33v25.03c4.5-2.57,10.66-5.23,15.7-8.22,8.2-4.86,16.6-10.73,16.6-19.61,0-10.37-5.59-16.52-16.15-16.52Z"/>
      </g>
    </g>
  </g>
</svg>